<?xml version="1.0" encoding="UTF-8" standalone="no"?>
<svg width="24px" height="24px" viewBox="0 0 24 24" version="1.1" xmlns="http://www.w3.org/2000/svg" xmlns:xlink="http://www.w3.org/1999/xlink" xmlns:sketch="http://www.bohemiancoding.com/sketch/ns">
    <path d="M19,2 C19,0.8954305 18.1045695,6.76353751e-17 17,0 L7,0 C5.8954305,-6.76353751e-17 5,0.8954305 5,2 L5,22 C5,23.1045695 5.8954305,24 7,24 L17,24 C18.1045695,24 19,23.1045695 19,22 L19,2 L19,2 Z M10.5,2 L13.5,2 C13.7761424,2 14,2.22385763 14,2.5 C14,2.77614237 13.7761424,3 13.5,3 L10.5,3 C10.2238576,3 10,2.77614237 10,2.5 C10,2.22385763 10.2238576,2 10.5,2 L10.5,2 Z M12,22 C11.4477153,22 11,21.5522847 11,21 C11,20.4477153 11.4477153,20 12,20 C12.5522847,20 13,20.4477153 13,21 C13,21.5522847 12.5522847,22 12,22 L12,22 Z M17,19 L7,19 L7,4.976 L17,4.976 L17,19 L17,19 Z" fill="#FFFFFF"></path>
</svg>