<svg width="73px" height="40px" viewBox="0 0 73 40" version="1.1" xmlns="http://www.w3.org/2000/svg" xmlns:xlink="http://www.w3.org/1999/xlink" xmlns:sketch="http://www.bohemiancoding.com/sketch/ns">
    <title>logo</title>
    <path d="M20.1406488,0.0380881671 L20.2128108,0.00606960557 C20.3063886,0.220454756 20.4646794,0.397716937 20.5922432,0.591684455 C20.6248325,0.640408353 20.659284,0.689132251 20.6923388,0.738320186 C20.8785633,1.0097819 21.0666501,1.28031555 21.2542712,1.55131323 C21.2915161,1.60467749 21.3296922,1.65757773 21.3678682,1.710942 C21.4139587,1.77822738 21.4586526,1.8459768 21.5047432,1.91372622 C21.5578172,1.99307657 21.6150812,2.07010673 21.6695518,2.14899304 C21.9135059,2.50583759 22.1560633,2.86361021 22.4093286,3.21395824 C22.4698516,3.29423666 22.5229256,3.38008353 22.5732062,3.46732251 C22.7985378,3.39910905 23.0215416,3.32393503 23.2454766,3.25247332 C23.3902661,3.21256613 23.533659,3.16709049 23.6770518,3.12207889 L23.765974,3.0947007 C24.1165416,2.98843619 24.465247,2.87567517 24.815349,2.7684826 C24.8432827,2.76059397 24.8986845,2.74528074 24.9261526,2.73739211 C25.2930149,2.63948028 25.6659294,2.56059397 26.0448962,2.52857541 C26.0793478,2.52625522 26.1487164,2.52207889 26.1836335,2.5197587 C26.5458401,2.50908585 26.9988312,2.54064037 27.2004192,2.89238051 C27.2655978,3.03437587 27.2623388,3.1935406 27.2534932,3.34574478 C27.240923,3.36616241 27.2157827,3.40653364 27.2032126,3.42648724 C26.9736909,3.83901624 26.5747049,4.11511833 26.1817712,4.35827378 C25.9503873,4.48588399 25.7222623,4.62091879 25.4843605,4.73692807 C25.3088439,4.81767053 25.1314651,4.89423666 24.9592075,4.9810116 C24.9070646,5.00653364 24.8544562,5.03112761 24.8023133,5.05572158 C24.4666437,5.21256613 24.1337674,5.37497912 23.7971666,5.52996752 C23.750145,5.55084919 23.7035888,5.57080278 23.6584294,5.59400464 C23.6230467,5.62880742 23.52202,5.63716009 23.5373835,5.70490951 C23.5499536,5.80235731 23.5774217,5.89748492 23.598372,5.9935406 C23.6318924,6.16430626 23.670534,6.33367981 23.7208146,6.50026914 C23.7776131,6.75641763 23.8251003,7.01488631 23.8856233,7.27057077 C23.8981934,7.32625522 23.9107636,7.38147564 23.9233337,7.43716009 C24.0113248,7.83019954 24.1007126,8.22323898 24.1891692,8.61674246 C24.2012738,8.67242691 24.2138439,8.72857541 24.2268797,8.7847239 C24.294386,9.08913225 24.3637547,9.3935406 24.4326577,9.69841299 C24.2194307,9.73832019 24.0057381,9.77683527 23.7929766,9.81952668 C23.7706297,9.82370302 23.7264013,9.83205568 23.70452,9.83623202 C23.6407381,9.84690487 23.5769562,9.85757773 23.5136399,9.86825058 C23.3250876,9.49841299 23.1435187,9.12532715 22.9526386,8.75688167 C22.928895,8.71187007 22.9056169,8.66685847 22.8823388,8.62184687 C22.7757253,8.41256613 22.6723707,8.20235731 22.5666883,7.99307657 C22.5257189,7.91187007 22.4833529,7.83205568 22.4409868,7.75177726 C22.3841883,7.6422645 22.328321,7.5322877 22.2729192,7.42184687 C22.24452,7.36616241 22.2170518,7.31047796 22.1895837,7.2547935 C22.0257062,6.92254292 21.857173,6.59307657 21.6858465,6.26453828 C21.5848197,6.29145244 21.4837929,6.31836659 21.3832317,6.34574478 C21.3529702,6.35363341 21.2924473,6.36987471 21.2621858,6.37776334 C20.4954064,6.58425986 19.7267649,6.78611601 18.9599855,6.9935406 L18.887358,7.01303016 C18.6941501,7.06314617 18.5009422,7.11372622 18.3081998,7.1647703 C18.2946985,7.21767053 18.2816628,7.27057077 18.2686271,7.32393503 L18.248608,7.40467749 C18.149909,7.80189327 18.0488822,8.19910905 17.9534422,8.5972529 C17.9404064,8.64876102 17.9273707,8.70073318 17.9148006,8.7522413 C17.8766246,8.90212529 17.8407763,9.05200928 17.8109804,9.20374942 C17.7783911,9.33089559 17.7388184,9.45572158 17.7039013,9.58240371 C17.609858,9.27892343 17.5069689,8.97869142 17.4017521,8.67892343 C17.1228809,8.74064037 16.8565799,8.84365661 16.5879511,8.93878422 C16.5562929,8.94992111 16.4929766,8.9721949 16.4613184,8.98333179 C16.115872,9.10444548 15.7704256,9.22370302 15.4277725,9.35270534 C15.3746985,9.3721949 15.321159,9.39214849 15.2685506,9.41210209 C14.9421922,9.536 14.6232827,9.67753132 14.2973899,9.80282135 C14.0725238,9.88449188 13.8509166,9.97637123 13.6321029,10.072891 C13.4333082,10.1503852 13.2359103,10.2301995 13.0431679,10.3216148 C13.0124409,10.336 12.9505212,10.3647703 12.9197942,10.3791555 C12.5776067,10.5401763 12.2316947,10.6933086 11.8913695,10.8580418 C11.8336399,10.885884 11.7763758,10.9141903 11.7181807,10.9415684 C11.4174281,11.0835638 11.1157445,11.2246311 10.8247687,11.3875081 C10.7116373,11.448761 10.6008337,11.5146543 10.4853746,11.5717309 C10.1534294,11.7401763 9.82613986,11.9169745 9.5062993,12.1072297 C9.46020874,12.1336798 9.41411818,12.160594 9.36849318,12.1879722 C9.0500493,12.3805476 8.73113986,12.5712668 8.42014496,12.7749791 C8.34751741,12.8223109 8.27349318,12.8687146 8.19946894,12.9132622 C7.82469216,13.1429606 7.47784904,13.4148863 7.1133146,13.6603619 C7.03882481,13.7118701 6.96666282,13.7666265 6.89356971,13.8199907 C6.80650976,13.8793875 6.7231743,13.9438886 6.64356333,14.0130302 C6.56115899,14.0807796 6.47922022,14.1494571 6.39728144,14.2181346 C6.24876741,14.336 6.10071894,14.4547935 5.95453272,14.5759072 C5.91728782,14.6056056 5.88004292,14.6353039 5.84326358,14.6654664 C5.54902889,14.9021253 5.28738348,15.1754432 5.01084011,15.4315916 C4.96754292,15.473355 4.92424573,15.5151183 4.88094853,15.5568817 C4.82228782,15.6121021 4.7636271,15.6673225 4.7072942,15.7243991 C4.66492812,15.7666265 4.6244243,15.81071 4.58392047,15.8547935 C4.31110159,16.1633782 4.02059139,16.4566497 3.76267047,16.7786914 C3.7286845,16.823239 3.69469853,16.8682506 3.66117812,16.9141903 C3.61974318,16.9694107 3.57784267,17.0246311 3.53501103,17.0793875 C3.49404165,17.1304316 3.4526067,17.1810116 3.41256843,17.2329838 C3.19654802,17.5132622 2.9986845,17.8065336 2.81199445,18.1067657 C2.7766118,18.1624501 2.74169471,18.2185986 2.7081743,18.2756752 C2.58526614,18.4798515 2.46934139,18.6886682 2.36226231,18.9016613 C2.3455021,18.9322877 2.3119817,18.9930766 2.29475593,19.023703 C2.21700721,19.1643063 2.14531078,19.3081578 2.07407991,19.4524733 C2.04847404,19.5049095 2.02333374,19.5578097 2.00005568,19.6121021 C1.84595491,19.9810116 1.70163093,20.3550255 1.58151614,20.736464 C1.56010032,20.8056056 1.53821894,20.8742831 1.51633756,20.9434246 C1.39901614,21.3202227 1.30357608,21.7044455 1.2337419,22.0928445 C1.22163731,22.1643063 1.20906716,22.235768 1.19789369,22.3076937 C1.18113348,22.4162784 1.1653044,22.5257912 1.15366537,22.6353039 C1.0223771,23.6274153 1.03122277,24.6366961 1.16111435,25.6288074 C1.17927124,25.8005012 1.2048771,25.9717309 1.2337419,26.1420325 C1.24025976,26.1786914 1.25329547,26.2520093 1.25981333,26.2886682 C1.33244088,26.6956288 1.42275976,27.1002691 1.53728782,27.497949 C1.54753017,27.5327517 1.56801486,27.6023573 1.57872277,27.6371601 C1.69744088,28.0473689 1.83338476,28.4529374 1.98888221,28.8515452 C2.00005568,28.8803155 2.02240261,28.9387842 2.03357608,28.9675545 C2.11318705,29.1717309 2.19559139,29.3749791 2.28777251,29.574051 C2.31244726,29.6260232 2.33758756,29.6784594 2.36319343,29.7313596 C2.43163093,29.886348 2.49913731,30.0418005 2.57548935,30.1930766 C2.59178399,30.2264872 2.62483884,30.2928445 2.64159904,30.3262552 C2.85855057,30.7499211 3.0899345,31.1670905 3.34552761,31.5694107 C3.40465389,31.6654664 3.46517685,31.761058 3.5294243,31.8547935 C3.60903527,31.9717309 3.69097404,32.0872761 3.77244726,32.2037494 C3.7142521,32.1387842 3.65652251,32.072891 3.59925848,32.0083898 C3.53594216,31.9346079 3.47169471,31.8622181 3.41070619,31.7879722 C3.37299573,31.7397123 3.33388858,31.6928445 3.29571256,31.6459768 C3.25520874,31.5953968 3.21563603,31.5448167 3.17699445,31.4937726 C2.92000466,31.1592019 2.67744726,30.8144223 2.44420108,30.4626821 C2.37576358,30.3601299 2.30779165,30.2575777 2.24494088,30.1522413 C2.00052124,29.7564176 1.77425848,29.3499211 1.55823807,28.9383202 C1.54380568,28.9090858 1.51494088,28.8515452 1.50004292,28.8223109 C1.38085925,28.5749791 1.26446894,28.3267193 1.15180312,28.0766032 C1.12293833,28.0134942 1.09267685,27.9508492 1.06474318,27.8882042 C1.03168833,27.8018933 0.997236798,27.7165104 0.963250829,27.6311276 C0.944162819,27.5824037 0.92554037,27.5336798 0.906917921,27.485884 C0.757007207,27.0919165 0.623391135,26.6919165 0.503741901,26.2877401 C0.494896237,26.2552575 0.476739349,26.1893643 0.467428125,26.1568817 C0.374781441,25.8102459 0.293773788,25.460826 0.223939605,25.1095499 C0.196937054,24.9540974 0.169468941,24.798645 0.144328635,24.6431926 C0.0996347577,24.3434246 0.0637865434,24.0422645 0.0386462372,23.7406404 C-0.0130310587,23.0905244 -0.0134966199,22.4366961 0.0409740434,21.7870441 C0.0623898597,21.4993411 0.102428125,21.2130302 0.145725319,20.9281114 C0.155967666,20.8654664 0.167606696,20.8028213 0.179711288,20.7415684 C0.251407717,20.3601299 0.333812054,19.9810116 0.432976594,19.6060696 C0.442287819,19.5717309 0.460910268,19.5021253 0.470221492,19.4677865 C0.577300574,19.0552575 0.733729145,18.6580418 0.888761033,18.2617541 C0.90272787,18.2278794 0.929730421,18.1601299 0.943231696,18.1262552 C0.984666645,18.0246311 1.02423935,17.9225429 1.06846767,17.8218469 C1.10617812,17.7383202 1.14668195,17.6557216 1.18532353,17.5726589 C1.27145236,17.3842599 1.36270236,17.198181 1.45814241,17.0139582 C1.49678399,16.9392483 1.53309777,16.8626821 1.57313603,16.7889002 C1.79846767,16.3810116 2.04847404,15.9870441 2.291497,15.5893643 C2.3287419,15.5304316 2.37017685,15.4742831 2.41254292,15.4190626 C2.71562328,15.0260232 2.98657991,14.6088538 3.31200721,14.2329838 C3.39394598,14.135536 3.47681588,14.0385522 3.55968578,13.9424965 C3.85252379,13.5875081 4.16398425,13.248761 4.48801486,12.9225429 C4.56297022,12.8445847 4.63978782,12.7689466 4.71707098,12.6937726 C5.07182864,12.3267193 5.44846767,11.9837958 5.83441792,11.6501531 C5.90471767,11.5851879 5.97734522,11.523007 6.05043833,11.460826 C6.35398425,11.1935406 6.66870364,10.9406404 6.98807864,10.6923805 C7.0281169,10.660826 7.06862073,10.6301995 7.10865899,10.5995731 C7.32235159,10.4371601 7.53418195,10.272891 7.74787455,10.110942 C7.81119088,10.0631462 7.87497277,10.0158144 7.93922022,9.96894664 C8.03605695,9.89934107 8.13382481,9.83019954 8.23019598,9.75966589 C8.29584011,9.71187007 8.36055312,9.66314617 8.42852506,9.61859861 C8.75441792,9.4097819 9.07146511,9.18750812 9.39363348,8.97265893 C9.58963476,8.85154524 9.78098042,8.72393503 9.97511945,8.59957309 C10.1594817,8.48866821 10.3424473,8.37590719 10.5277406,8.26639443 C10.5710378,8.23994432 10.614335,8.21395824 10.6580978,8.18843619 C11.0454447,7.96198608 11.4276705,7.72671926 11.8173452,7.50537355 C11.9658592,7.42741531 12.1106488,7.34249652 12.2596284,7.26546636 C12.4812355,7.15688167 12.6977215,7.03901624 12.9174664,6.92764733 C12.967747,6.90166125 13.0184932,6.87521114 13.0692393,6.84876102 C13.4407572,6.65247332 13.8085506,6.44690487 14.1907763,6.27057077 C14.4370582,6.16291415 14.67496,6.03808817 14.9175174,5.92300696 C15.0609103,5.86082599 15.2010442,5.79214849 15.3421092,5.72486311 C15.3663184,5.71372622 15.4147368,5.6909884 15.438946,5.67938747 C15.6247049,5.5935406 15.8095327,5.50537355 15.9957572,5.41999072 C15.8588822,5.18518794 15.746682,4.93553596 15.5828044,4.71743852 L15.5902534,4.68959629 C15.6014268,4.67010673 15.6233082,4.63159165 15.6344817,4.61256613 C15.6945391,4.65293735 15.7559932,4.69377262 15.8183784,4.73135963 C16.0330021,4.86082599 16.2494881,4.98611601 16.4655085,5.11326218 C16.511599,5.14017633 16.5576896,5.16755452 16.6042457,5.19493271 C16.9673835,5.40885383 17.3333146,5.61813457 17.6941246,5.83623202 C17.7076258,5.84504872 17.7350939,5.86175406 17.7485952,5.87057077 C17.8091182,5.83901624 17.8696411,5.80699768 17.9306297,5.77590719 C18.2509358,5.6134942 18.5670518,5.44458469 18.884099,5.27567517 C18.9111016,5.26175406 18.9655723,5.2334478 18.9925748,5.21906265 C19.2435123,5.08866821 19.4949154,4.95966589 19.7435251,4.8260232 C19.9129893,4.74249652 20.0754702,4.64644084 20.2440034,4.56152204 C20.4395391,4.46314617 20.632747,4.36059397 20.8264205,4.2585058 C20.7207381,3.97451508 20.613659,3.69191647 20.5056488,3.40885383 C20.4837674,3.35270534 20.4628172,3.29655684 20.4423325,3.24040835 C20.3729638,3.05804176 20.3068541,2.87428306 20.2346922,2.69284455 C20.2086207,2.62927146 20.1792904,2.56662645 20.1541501,2.50305336 C20.1075939,2.35270534 20.0531233,2.20514153 19.9967904,2.05804176 C19.9772368,2.00699768 19.9576832,1.95548956 19.9390608,1.90444548 C19.7910123,1.50769374 19.6424983,1.110942 19.4902598,0.716046404 C19.4576705,0.637160093 19.4395136,0.551777262 19.4534804,0.466858469 L19.473034,0.445048724 C19.7020901,0.320222738 19.9129893,0.164770302 20.1406488,0.0380881671 L20.1406488,0.0380881671 Z M40.3436781,15.4209188 C40.2459103,15.4390162 40.1653682,15.5016613 40.0885506,15.5592019 C39.6797878,15.7977169 39.5401195,16.3675545 39.7519498,16.7837958 C39.7882636,16.8418005 39.8245774,16.8998051 39.8613567,16.9582738 L39.867409,16.9578097 C39.970298,17.0789234 40.095534,17.1791555 40.2384613,17.2506172 L40.2389268,17.2580418 C40.2724473,17.2663944 40.3394881,17.2830998 40.3730085,17.2919165 L40.3720774,17.3086218 C40.760821,17.4255592 41.2003108,17.3308956 41.4954766,17.0501531 L41.4973388,17.0571137 C41.5550684,16.9759072 41.612798,16.8947007 41.6700621,16.8130302 L41.6686654,16.8065336 C41.8423197,16.5090858 41.8185761,16.1202227 41.635145,15.8325197 C41.601159,15.7810116 41.5559996,15.7369281 41.5168924,15.6914524 L41.5182891,15.6775313 C41.4838376,15.6520093 41.4512483,15.6250951 41.4167967,15.6028213 C41.3297368,15.5304316 41.2370901,15.4594339 41.1286143,15.4255592 C40.8781424,15.3327517 40.5932189,15.3165104 40.3436781,15.4209188 L40.3436781,15.4209188 Z M45.1696858,13.7025893 L45.1696858,13.6756752 C45.1082317,13.8195267 45.0793669,13.973587 45.0751768,14.1290394 C45.0863503,14.1415684 45.1086973,14.1670905 45.1198707,14.1796195 C45.0849536,14.2724269 45.1156807,14.3629142 45.15246,14.4506172 C45.3130786,14.8724269 45.772122,15.110942 46.2106807,15.1011972 L46.2074217,15.0626821 L46.2954128,15.0933086 C46.6841564,15.0241671 47.0440353,14.7661624 47.1702024,14.3833318 C47.1916182,14.2844919 47.2051195,14.1842599 47.217224,14.0840278 C47.2121029,13.5958608 46.814048,13.1791555 46.3401067,13.097949 L46.3405723,13.0947007 C46.2902916,13.0919165 46.2409422,13.0886682 46.1920582,13.085884 C45.7725876,13.0673225 45.3251832,13.3039814 45.1696858,13.7025893 M52.125636,10.6598979 C51.7853108,10.8069977 51.4989906,11.0789234 51.3728235,11.4306636 L51.3681679,11.4306636 C51.3616501,11.4673225 51.3490799,11.5401763 51.3430276,11.5763712 L51.3290608,11.5763712 C51.2420008,12.0023573 51.4021539,12.4506172 51.7215289,12.7415684 C51.7876386,12.7902923 51.8556105,12.8380882 51.9249791,12.8835638 L51.9436016,12.8872761 C52.3416564,13.1373921 52.8668095,13.1438886 53.2834868,12.9332158 L53.2932636,12.9336798 C53.3663567,12.8798515 53.4408465,12.8269513 53.5181297,12.7772993 C53.8775429,12.4993411 54.0535251,12.0167425 53.9590161,11.573123 C53.9408592,11.5127981 53.924099,11.4529374 53.90827,11.3930766 L53.9045455,11.3930766 C53.8198133,11.1940046 53.6899217,11.0176705 53.5251131,10.8766032 L53.5260442,10.8663944 C53.4780914,10.8404084 53.4310697,10.8148863 53.3845136,10.7893643 L53.3849791,10.7717309 C53.0972623,10.6083898 52.7569371,10.5285754 52.4277853,10.586116 C52.3248962,10.6028213 52.224335,10.6283434 52.125636,10.6598979 M58.4479575,8.60235731 C58.3110825,8.64412065 58.1960888,8.73367981 58.0764396,8.80792575 C57.8566947,8.99539675 57.6867649,9.24458469 57.6253108,9.52903944 C57.619724,9.53414385 57.608085,9.54435267 57.6024983,9.54992111 C57.5917904,9.736 57.6085506,9.923471 57.6457955,10.1063016 L57.6527789,10.1063016 C57.7295965,10.3438886 57.8687993,10.5592019 58.0629383,10.7179026 L58.0629383,10.7211508 C58.1090289,10.7540974 58.155585,10.78658 58.2035378,10.8199907 C58.5266373,11.023239 58.92702,11.0663944 59.2976067,10.9902923 C59.3562674,10.9712668 59.413997,10.9494571 59.47452,10.9313596 L59.4684677,10.9257912 C59.8213631,10.7898283 60.1053554,10.4951647 60.2254702,10.1373921 L60.2329192,10.1387842 C60.280872,9.93460789 60.3013567,9.72207889 60.2566628,9.51558237 C60.1868286,9.20606961 59.9912929,8.93460789 59.7338376,8.75177726 C59.6188439,8.68913225 59.5066437,8.60421346 59.3725621,8.59446868 C59.0806552,8.46685847 58.7417266,8.4998051 58.4479575,8.60235731 M45.9192393,7.26268213 C45.7469817,7.29609281 45.5835697,7.36569838 45.4215544,7.43112761 C45.3335633,7.44319258 45.2516246,7.47799536 45.1692202,7.50583759 C45.1384932,7.51697448 45.0765735,7.53832019 45.0458465,7.54899304 C44.7004001,7.66732251 44.3568159,7.78890023 44.0127661,7.90954988 L44.0127661,7.91233411 C43.9829702,7.92393503 43.9233784,7.94667285 43.8935825,7.95780974 C43.5160123,8.08959629 43.1403044,8.22695128 42.7664587,8.3684826 C42.7175748,8.38425986 42.6682253,8.40050116 42.6207381,8.41674246 L42.6212036,8.42463109 C42.4652406,8.48170766 42.3092776,8.53878422 42.1565735,8.60421346 C42.0029383,8.64412065 41.8581488,8.71279814 41.7128937,8.77544316 C41.6877534,8.78240371 41.6370072,8.79586079 41.6114013,8.80282135 C41.5722942,8.81999072 41.5336526,8.83716009 41.495011,8.85432947 C41.1113886,8.99957309 40.7305595,9.1522413 40.3506615,9.3072297 L40.3511271,9.310942 C40.323659,9.32161485 40.2682572,9.34296056 40.2407891,9.35363341 C39.7589332,9.54203248 39.2835952,9.74574478 38.8091883,9.95131323 C38.7211973,9.97173086 38.642983,10.0227749 38.5638376,10.0631462 L38.5540608,10.06129 C38.3864587,10.1262552 38.2221156,10.1977169 38.0577725,10.2691787 L38.0582381,10.272891 C38.0330978,10.2840278 37.9832827,10.3058376 37.958608,10.3169745 C37.5652087,10.4775313 37.1825174,10.6617541 36.7928427,10.8311276 L36.7984294,10.8812436 C36.7737547,10.873819 36.7248707,10.8594339 36.7006615,10.8520093 L36.7006615,10.8761392 C36.3505595,11.0390162 35.9925429,11.1875081 35.6526832,11.3721949 L35.643372,11.3703387 C35.4902024,11.435768 35.3398261,11.5067657 35.1931743,11.5842599 C34.9310633,11.6960928 34.6805914,11.8320557 34.4222049,11.9508492 L34.4222049,11.9689466 C34.3905467,11.9805476 34.3272304,12.0037494 34.2951067,12.0153503 C33.951057,12.1875081 33.6070072,12.3592019 33.263423,12.5322877 C33.0222623,12.6464408 32.7834294,12.7680186 32.5580978,12.9118701 C32.4063248,12.9578097 32.2741054,13.0515452 32.1330404,13.1216148 C32.0878809,13.1443527 32.0441182,13.1675545 31.9998899,13.1902923 C31.6223197,13.3907564 31.2475429,13.5944687 30.8727661,13.7995731 L30.8741628,13.8223109 C30.8471603,13.8315916 30.792224,13.8506172 30.7652215,13.8598979 C30.6087929,13.9457448 30.4514332,14.0297355 30.3001258,14.123935 C30.2028235,14.1643063 30.1143669,14.2223109 30.0254447,14.2779954 C29.9192967,14.3267193 29.8205978,14.3893643 29.7191054,14.4464408 L29.7205021,14.473819 C29.6613758,14.4919165 29.6041118,14.511406 29.5463822,14.5304316 L29.5524345,14.5457448 C29.1832445,14.7522413 28.8205723,14.9694107 28.4565034,15.1851879 L28.4569689,15.1879722 C28.4355531,15.2014292 28.3927215,15.2288074 28.3713057,15.2422645 C28.2609677,15.3002691 28.1538886,15.3643063 28.0500684,15.4329838 C27.9760442,15.4589698 27.9183146,15.5169745 27.8559294,15.5624501 L27.8410314,15.561522 C27.670636,15.6580418 27.5039651,15.760594 27.3386909,15.8650023 C27.3084294,15.8830998 27.248372,15.9192947 27.2181105,15.9373921 C26.7781552,16.2069977 26.347511,16.4914524 25.9122113,16.7684826 L25.8968478,16.7712668 C25.8409804,16.8153503 25.7855786,16.8594339 25.7306424,16.9049095 L25.7073643,16.9025893 C25.4433911,17.0705708 25.1864013,17.248297 24.9238248,17.4176705 L24.9247559,17.4445847 C24.8791309,17.4617541 24.8339715,17.4789234 24.7888121,17.4960928 L24.7897432,17.510942 C24.5113376,17.6974849 24.2352598,17.8872761 23.9605786,18.0784594 C23.8628108,18.1462088 23.7678363,18.2172065 23.670534,18.2844919 C23.2859804,18.5466729 22.9084103,18.8185986 22.5350302,19.0960928 C22.4935952,19.123935 22.4521603,19.1522413 22.4116564,19.1805476 L22.4111909,19.1916845 C22.2999217,19.2636102 22.1937738,19.3420325 22.0894881,19.423703 L22.0815735,19.4223109 C21.9982381,19.486348 21.9149026,19.5513132 21.8311016,19.6148863 C21.6830531,19.7248631 21.5354702,19.835768 21.3906807,19.9499211 C21.3422623,19.9851879 21.2943095,20.0209188 21.2468223,20.0571137 C20.9409485,20.297949 20.6266947,20.5290394 20.3301322,20.7810116 C20.2533146,20.8325197 20.1858082,20.8956288 20.1145774,20.9540974 C19.7221092,21.2515452 19.3482636,21.5726589 18.9702279,21.8882042 L18.9706934,21.8974849 C18.8217138,21.998181 18.6806488,22.1123341 18.5656552,22.2510812 L18.5474983,22.2501531 C18.3091309,22.4459768 18.0814715,22.6543295 17.8463631,22.8538654 L17.8463631,22.873355 C17.7993414,22.9049095 17.7527853,22.9373921 17.7062291,22.9698747 L17.7071603,22.9879722 C17.5307126,23.1369281 17.3584549,23.2914524 17.1922496,23.4520093 L17.180145,23.4510812 C17.1200876,23.511406 17.0604957,23.5721949 17.0027661,23.6343759 C16.9292075,23.6807796 16.8686845,23.7448167 16.8049026,23.8032854 C16.4622496,24.1415684 16.104233,24.4631462 15.7643733,24.8046775 C15.716886,24.8538654 15.6689332,24.9035174 15.6219115,24.9536334 C15.5623197,25.0097819 15.5027279,25.0663944 15.4436016,25.123471 C15.3998388,25.173123 15.355145,25.2227749 15.3109166,25.2724269 C15.03577,25.5448167 14.7666756,25.8246311 14.514807,26.1192947 C14.4440416,26.1930766 14.3853809,26.3202227 14.2615416,26.2812436 C14.260145,26.3346079 14.2573516,26.4408724 14.2564205,26.4942367 C14.6018669,26.2014292 14.9789715,25.9494571 15.3314013,25.6654664 C15.3779575,25.6315916 15.4254447,25.598181 15.4724664,25.5652343 C15.724335,25.373587 15.9803937,25.1875081 16.2322623,24.9967889 L16.2462291,24.9972529 C16.3188567,24.9373921 16.3910187,24.8770673 16.461784,24.8148863 L16.4724919,24.8153503 C16.8933592,24.5243991 17.3105021,24.2264872 17.7234549,23.9248631 C17.9501832,23.7912204 18.1624791,23.6339118 18.3687228,23.4710348 C18.5512228,23.3796195 18.7062547,23.2422645 18.8808401,23.1373921 L18.879909,23.1127981 C18.9246029,23.0933086 18.9692967,23.0742831 19.0144562,23.0557216 L19.0130595,23.0422645 C19.3612993,22.8056056 19.7169881,22.5805476 20.0647623,22.3429606 C20.1518223,22.2835638 20.2365544,22.223239 20.3273388,22.1689466 C20.6374026,21.9763712 20.9428108,21.7759072 21.2505467,21.5791555 C21.2961717,21.5499211 21.3422623,21.5202227 21.3888184,21.4919165 C21.6681552,21.3146543 21.951682,21.1434246 22.2286909,20.9629142 L22.2375365,20.9633782 C22.3390289,20.8951647 22.4423835,20.8288074 22.5485314,20.7670905 C22.9279638,20.5429606 23.3004128,20.3076937 23.6812419,20.08542 L23.6798452,20.0571137 C23.7073133,20.0473689 23.761784,20.0274153 23.7887865,20.0176705 C24.0066692,19.8914524 24.2282763,19.7703387 24.4363822,19.6278794 C24.5560314,19.5870441 24.6589205,19.5058376 24.7692585,19.4436566 L24.8013822,19.4418005 L24.8013822,19.4190626 C24.8335059,19.4028213 24.8977534,19.3708028 24.9298771,19.3545615 C25.3041883,19.1332158 25.6845518,18.923007 26.0625876,18.7076937 C26.1049536,18.685884 26.1477853,18.6640742 26.1906169,18.6427285 L26.1906169,18.6343759 C26.408034,18.5155824 26.6268478,18.3977169 26.8405404,18.2719629 C26.9271348,18.2441206 26.9988312,18.1833318 27.0719243,18.1313596 C27.1212738,18.1197587 27.1682955,18.0998051 27.2167138,18.0840278 L27.2157827,18.0566497 C27.2609422,18.0394803 27.3061016,18.0227749 27.3521922,18.0060696 L27.3517266,17.9949327 C28.0370327,17.6264872 28.7246666,17.2626821 29.4141628,16.9025893 C29.4844626,16.8770673 29.5440544,16.8311276 29.605974,16.7902923 C29.6143541,16.7907564 29.6311143,16.7921485 29.6394945,16.7926125 L29.6334422,16.7332158 C29.6585825,16.7406404 29.7083975,16.7559536 29.7335378,16.7638422 L29.7330723,16.736 C30.0743286,16.5772993 30.4025493,16.3930766 30.7419434,16.2311276 C30.7884996,16.2069977 30.8355212,16.1828677 30.883474,16.1596659 C31.2419562,15.9745151 31.6102151,15.8088538 31.9682317,15.6213828 L31.9747496,15.6218469 C32.0757763,15.5703387 32.1781998,15.5216148 32.2801577,15.4714988 C32.5753235,15.3373921 32.8653682,15.1926125 33.1596029,15.0552575 C33.232696,15.0218469 33.3057891,14.98658 33.37702,14.9476009 C33.6894115,14.8172065 33.9910952,14.6617541 34.3006934,14.523935 C34.3411973,14.5063016 34.3826322,14.4891323 34.4240672,14.4724269 L34.4249983,14.4650023 C34.593997,14.3935406 34.7606679,14.3165104 34.925011,14.2343759 C35.0390735,14.198181 35.1447559,14.1397123 35.2513695,14.08542 C35.3514651,14.0552575 35.4450429,14.0079258 35.5414141,13.9661624 C35.5907636,13.9434246 35.6401131,13.9202227 35.6908592,13.897949 C36.0255978,13.7466729 36.3640608,13.6037494 36.6997304,13.4547935 C36.7476832,13.4353039 36.795636,13.4162784 36.84452,13.3977169 L36.8440544,13.3902923 C37.1806552,13.2469049 37.5195837,13.1086218 37.8538567,12.9596659 L37.8082317,12.9531694 C38.0172687,12.923935 38.2062865,12.7977169 38.407409,12.7299675 C38.6373962,12.6427285 38.8617967,12.5401763 39.0913184,12.4515452 L39.0913184,12.4427285 C39.1234422,12.4315916 39.187224,12.4093179 39.2188822,12.398181 C39.5615353,12.2552575 39.9093095,12.1253271 40.2519626,11.9814756 C40.2817585,11.9698747 40.3413503,11.9466729 40.3711462,11.9346079 C40.669571,11.8185986 40.969858,11.7058376 41.2659549,11.5828677 C41.3935187,11.5462088 41.5122368,11.4835638 41.6370072,11.4376241 C41.9740735,11.323471 42.3032253,11.1884362 42.6370327,11.0654664 C42.6807955,11.0492251 42.7250238,11.0329838 42.7701832,11.0167425 C43.1435633,10.8826357 43.5141501,10.7387842 43.8903235,10.6102459 L43.889858,10.598645 C43.9173261,10.5902923 43.9717967,10.574051 43.9992649,10.5656984 L44.0104383,10.535536 L44.0365098,10.5462088 C44.384284,10.4441206 44.7199536,10.3025893 45.0658656,10.1930766 L45.0560888,10.1745151 C45.3037674,10.1415684 45.5309613,10.0167425 45.7688631,9.94249652 C45.9136526,9.90908585 46.0519243,9.85340139 46.1920582,9.80235731 C46.2213886,9.79400464 46.2805149,9.77683527 46.3103108,9.7684826 L46.3103108,9.76198608 C46.6864842,9.64458469 47.0580021,9.51279814 47.4332445,9.3935406 C47.4667649,9.38425986 47.5328746,9.36569838 47.566395,9.35641763 L47.5659294,9.348529 C47.9076513,9.24412065 48.2456488,9.12903944 48.5883018,9.02741531 L48.5873707,9.00374942 C48.6208911,9.00189327 48.687932,8.99771694 48.7219179,8.99586079 L48.7214524,8.98054756 C48.912798,8.92439907 49.1055404,8.86917865 49.2931615,8.80003712 C49.4747304,8.77033875 49.6465225,8.6909884 49.8234358,8.63808817 C49.8038822,8.62927146 49.7652406,8.61210209 49.7456871,8.60374942 C49.4044307,8.40792575 49.0520008,8.23205568 48.7042266,8.04829698 C48.6753618,8.03483991 48.6185633,8.00699768 48.5901641,7.9935406 L48.5901641,7.98658005 C48.2484422,7.80838979 47.9104447,7.6223109 47.5654638,7.45015313 L47.5654638,7.4459768 C47.4420901,7.38797216 47.3280276,7.31001392 47.2018605,7.25943387 C47.0384485,7.16337819 46.8694498,7.07799536 46.7009166,6.99214849 C46.441599,7.08588399 46.1780914,7.16709049 45.9192393,7.26268213 M38.057307,7.10630162 C37.8161462,7.20142923 37.5805723,7.31001392 37.3519817,7.43205568 C37.1666883,7.48774014 36.9976896,7.58704408 36.8203108,7.66268213 C36.7788758,7.68077958 36.7374409,7.69841299 36.6964715,7.7160464 L36.6964715,7.72300696 C36.3575429,7.87242691 36.0251322,8.03669606 35.6894626,8.19400464 C35.6447687,8.21581439 35.6000748,8.23808817 35.5567776,8.26036195 C35.3216692,8.37080278 35.0898197,8.48820418 34.8593669,8.60699768 C34.7685825,8.62416705 34.6954893,8.68634803 34.6219307,8.73692807 L34.5967904,8.73460789 C34.536733,8.7647703 34.4776067,8.79446868 34.4184804,8.82463109 L34.418946,8.83716009 C34.3872878,8.84876102 34.3239715,8.87242691 34.2923133,8.88402784 C33.947798,9.06268213 33.6000238,9.23483991 33.2610952,9.42416705 C33.2173325,9.44319258 33.1740353,9.46268213 33.1312036,9.48263573 L33.1316692,9.48913225 C32.8728172,9.62323898 32.6158274,9.76198608 32.3620965,9.90583759 L32.3495263,9.90305336 C32.2345327,9.97033875 32.1204702,10.0404084 32.0036143,10.1049095 C31.6213886,10.3039814 31.2508018,10.523935 30.8778873,10.7397123 C30.8304001,10.7647703 30.7838439,10.7902923 30.7372878,10.8153503 L30.7377534,10.8213828 C30.4109294,11.0121021 30.0817776,11.198645 29.7642649,11.4037494 L29.7563503,11.4037494 C29.6627725,11.4691787 29.563608,11.5257912 29.4663057,11.5851879 C29.1292393,11.7800835 28.8033465,11.9944687 28.4746603,12.2032854 C28.4332253,12.2297355 28.3917904,12.2561856 28.3512865,12.2826357 C28.1203682,12.4269513 27.8950365,12.5791555 27.6692393,12.7308956 L27.6552725,12.7295035 C27.5700748,12.7889002 27.4862738,12.8496891 27.4099217,12.9192947 C27.3871092,12.9262552 27.3419498,12.9397123 27.3191373,12.9462088 L27.3214651,12.9726589 C27.293997,12.9875081 27.2385952,13.0176705 27.2106615,13.0329838 C26.8656807,13.2701067 26.5202342,13.5058376 26.1794434,13.748993 L26.179909,13.7661624 C26.134284,13.7889002 26.088659,13.8121021 26.0439651,13.835768 L26.0444307,13.8473689 C25.9350238,13.923007 25.826548,14.0000371 25.7199345,14.0789234 L25.7096922,14.0784594 C25.6347368,14.1378561 25.560247,14.1972529 25.488085,14.2598979 C25.2860314,14.3745151 25.1119115,14.5322877 24.9233592,14.6668585 L24.9238248,14.6793875 C24.8768031,14.7072297 24.8316437,14.736 24.7864842,14.7643063 C24.5076131,14.985652 24.2189651,15.1953968 23.9456807,15.4227749 L23.9354383,15.4223109 C23.8856233,15.46129 23.8367393,15.5011972 23.788321,15.5411044 L23.8404638,15.5587378 L23.7934422,15.5522413 C23.7520072,15.5800835 23.7105723,15.6083898 23.6696029,15.636232 C23.2776003,15.9513132 22.8869945,16.2687146 22.5061654,16.5972529 C22.3669626,16.7030534 22.2389332,16.8218469 22.1071794,16.936464 C21.8697432,17.1550255 21.6108911,17.3522413 21.3878873,17.585652 C21.3404001,17.6209188 21.2943095,17.6566497 21.2482189,17.6928445 L21.2486845,17.7030534 C21.1062228,17.8283434 20.9660888,17.9568817 20.8315416,18.0909884 L20.8189715,18.0891323 C20.7663631,18.1448167 20.7137547,18.2009652 20.6620774,18.2580418 L20.647645,18.2575777 C20.5028554,18.3916845 20.358997,18.5276473 20.222122,18.6701067 L20.2239842,18.7007332 C20.1960506,18.7127981 20.1406488,18.7369281 20.1127151,18.748993 L20.1136462,18.7694107 C19.8915735,18.9814756 19.6778809,19.2028213 19.458136,19.4176705 C19.3962164,19.4826357 19.3352279,19.548993 19.2742393,19.6148863 C19.1690225,19.7160464 19.069858,19.823239 18.9697623,19.9295035 L18.9702279,19.9420325 C18.9287929,19.9670905 18.8976003,19.998645 18.8757189,20.036232 C18.6387483,20.2673225 18.4231934,20.5192947 18.1983274,20.7619861 C18.1466501,20.8218469 18.0963695,20.8830998 18.0474855,20.9452807 L18.0344498,20.9448167 C17.9692712,21.0204548 17.9040927,21.0960928 17.8393797,21.1721949 L17.8398452,21.18658 C17.7951513,21.2274153 17.7513886,21.2687146 17.7071603,21.3100139 L17.7076258,21.323471 C17.4818286,21.5800835 17.263946,21.8436566 17.04746,22.1086218 C16.9957827,22.1712668 16.944571,22.2348399 16.8938248,22.298877 C16.7946603,22.4366961 16.6643031,22.5559536 16.5884166,22.7081578 C16.5418605,22.7540974 16.4971666,22.8014292 16.4520072,22.848761 L16.4524728,22.86129 C16.2988376,23.0594339 16.1493924,23.26129 15.9994817,23.4626821 C15.967358,23.5118701 15.9356998,23.5619861 15.9045072,23.6125661 L15.8937993,23.611174 C15.739233,23.8264872 15.58327,24.0408724 15.4398771,24.2636102 C15.3914587,24.3304316 15.3430404,24.3977169 15.2960187,24.4659304 L15.2969498,24.4761392 C15.2192011,24.586116 15.1465735,24.6993411 15.0720837,24.8116381 C15.03996,24.8659304 15.0078363,24.9202227 14.9761781,24.9749791 L14.9673325,24.9749791 C14.7527087,25.3281114 14.5324983,25.6789234 14.3383592,26.0441206 C14.2964587,26.1058376 14.3085633,26.1810116 14.3076322,26.2515452 C14.4524217,26.1800835 14.5385506,26.0399443 14.6377151,25.9202227 C14.8751513,25.6204548 15.1405212,25.3438886 15.3756297,25.0427285 C15.4342904,24.9824037 15.4910888,24.9197587 15.5450939,24.8552575 C15.8607445,24.5155824 16.1675493,24.1680186 16.4836654,23.8283434 C16.6009868,23.7202227 16.7099281,23.6032854 16.8132827,23.4817077 C17.1200876,23.1703387 17.4222368,22.8543295 17.7369562,22.5503852 L17.7360251,22.5420325 C17.8859358,22.4116381 18.0307253,22.2752111 18.1666692,22.1308956 C18.4082955,21.911406 18.6364205,21.6779954 18.879909,21.4603619 L18.8794434,21.4464408 C18.9246029,21.4130302 18.9692967,21.3800835 19.0144562,21.3466729 L19.0130595,21.3322877 C19.161108,21.2065336 19.3049664,21.0756752 19.4437036,20.9397123 C19.5060888,20.8933086 19.5619562,20.8394803 19.6192202,20.7870441 C19.7891501,20.6390162 19.960011,20.4923805 20.1252853,20.3392483 C20.172307,20.3002691 20.2197942,20.2622181 20.2672814,20.2241671 L20.2663503,20.2158144 C20.4907508,20.0283434 20.716548,19.8422645 20.9358274,19.6492251 L20.9451386,19.6506172 C21.0140416,19.5889002 21.0824791,19.5267193 21.1509166,19.4640742 C21.1881615,19.4366961 21.225872,19.4097819 21.2635825,19.3828677 L21.2631169,19.3661624 C21.3059485,19.336 21.3492457,19.3063016 21.3925429,19.2766032 C21.7282126,18.998645 22.0676067,18.7248631 22.412122,18.4575777 C22.560636,18.3466729 22.7040289,18.2292715 22.8506807,18.1155824 C23.1253618,17.9030534 23.404233,17.6956288 23.6817075,17.4868121 L23.6803108,17.4561856 C23.723608,17.4390162 23.7673707,17.4218469 23.811599,17.4046775 L23.8097368,17.3884362 C24.0029447,17.2506172 24.1961526,17.1118701 24.3851705,16.9680186 L24.3972751,16.9703387 C24.4717649,16.9123341 24.5439268,16.8520093 24.6151577,16.7898283 L24.6267967,16.7907564 C24.6863886,16.7503852 24.7455149,16.7100139 24.8055723,16.6696427 C24.8516628,16.636232 24.8982189,16.6032854 24.9452406,16.5708028 L24.9452406,16.5656984 C25.3228108,16.3090858 25.6952598,16.0445847 26.0728299,15.7879722 C26.2441564,15.6826357 26.4108274,15.5689466 26.5686526,15.4441206 C26.7944498,15.323007 26.9988312,15.1638422 27.217645,15.0297355 L27.2171794,15.0176705 C27.2479064,15.0005012 27.3093605,14.9666265 27.3400876,14.9494571 C27.6850684,14.7220789 28.0407572,14.510942 28.3810825,14.2766032 C28.4844371,14.2204548 28.5854638,14.1601299 28.6850939,14.097949 C28.9946922,13.9063016 29.3066182,13.7197587 29.6162164,13.5290394 C29.6571858,13.5058376 29.6986207,13.4830998 29.7400557,13.460826 L29.7400557,13.4547935 C30.0105467,13.2956288 30.2856934,13.1411044 30.5515289,12.9754432 L30.5343031,12.9522413 L30.5869115,12.9517773 C30.6981807,12.9146543 30.7838439,12.8269513 30.8895263,12.7763712 C31.2656998,12.5805476 31.6269753,12.3587378 32.000821,12.1582738 C32.046446,12.1327517 32.0925365,12.1072297 32.1395582,12.0821717 C32.4361207,11.9165104 32.7359422,11.7564176 33.0334358,11.5916845 L33.0446092,11.5921485 C33.1288758,11.5397123 33.2150047,11.4891323 33.3039268,11.4431926 C33.6381998,11.2784594 33.9645582,11.097949 34.2979001,10.9313596 L34.2979001,10.9197587 C34.3290927,10.9058376 34.3919434,10.8775313 34.423136,10.8636102 C34.8048962,10.6724269 35.1852598,10.4770673 35.56702,10.2844919 C35.7704702,10.1967889 35.9687993,10.0974849 36.1573516,9.98054756 C36.3519562,9.92022274 36.5288695,9.81303016 36.7141628,9.72903944 L36.7132317,9.71187007 C36.7430276,9.70212529 36.8026195,9.68217169 36.8324154,9.67242691 C37.4576641,9.37173086 38.0894307,9.08588399 38.7184039,8.7935406 C38.8394498,8.75873782 38.9511845,8.69423666 39.0643159,8.6385522 L39.0131041,8.62416705 C39.0326577,8.62555916 39.0708337,8.62834339 39.0899217,8.6297355 C39.1346156,8.61117401 39.1802406,8.59261253 39.2263312,8.57405104 L39.2263312,8.56894664 C39.567122,8.42509513 39.9046539,8.27428306 40.2445136,8.12811137 C40.2901386,8.10862181 40.335298,8.08959629 40.3823197,8.0710348 C40.4637929,8.03437587 40.5457317,7.99771694 40.6272049,7.95966589 C40.5475939,7.90908585 40.4684485,7.8585058 40.3893031,7.80838979 L40.3893031,7.79818097 C40.338557,7.76755452 40.2882763,7.73646404 40.2389268,7.70537355 C40.0894817,7.60374942 39.939571,7.50212529 39.7845391,7.40885383 C39.711446,7.35688167 39.639284,7.30537355 39.5661909,7.25432947 L39.5559485,7.2547935 C39.4488695,7.17405104 39.3376003,7.09887703 39.2235378,7.02880742 L39.2230723,7.01859861 C39.1807062,6.99678886 39.1392712,6.97451508 39.0983018,6.95270534 L39.0987674,6.93832019 C39.0089141,6.88217169 38.920923,6.82463109 38.8324664,6.76755452 C38.5740799,6.88031555 38.3147623,6.99122042 38.057307,7.10630162 M39.6215927,4.72671926 C39.6728044,4.70537355 39.7249473,4.68402784 39.7775557,4.66268213 L39.8064205,4.72115081 C39.9498133,5.01024594 40.0857572,5.30258933 40.2342712,5.58936427 C40.31621,5.7522413 40.3930276,5.91836659 40.4749664,6.08217169 C40.67702,6.4784594 40.8669689,6.88124362 41.0699536,7.27706729 C41.0960251,7.33043155 41.1220965,7.38379582 41.149099,7.43716009 C41.190534,7.52300696 41.2324345,7.60885383 41.2748006,7.69423666 C41.3478937,7.66361021 41.4219179,7.63251972 41.4959422,7.60235731 C41.7347751,7.51279814 41.9689524,7.41117401 42.2021985,7.30815777 C42.3414013,7.25340139 42.4824664,7.20235731 42.6221348,7.14760093 C42.6719498,7.12764733 42.7217649,7.10769374 42.772511,7.08820418 C43.1440289,6.94017633 43.5169434,6.79678886 43.8907891,6.6547935 C43.9424664,6.63669606 43.9941437,6.6172065 44.0462865,6.59632483 C44.3856807,6.47057077 44.7250748,6.34249652 45.0667967,6.22091879 C45.3521858,6.12671926 45.6305914,6.01395824 45.9150493,5.91697448 C46.0095582,5.88681206 46.1040672,5.85386543 46.1985761,5.82091879 C46.2367521,5.80699768 46.2758592,5.7935406 46.315432,5.78054756 C46.684622,5.65757773 47.0533465,5.53367981 47.4248643,5.41581439 C47.4737483,5.39957309 47.5226322,5.38286775 47.5738439,5.36755452 C47.6138822,5.35780974 47.6934932,5.33739211 47.7335314,5.32718329 C47.8876322,5.51140603 47.9942457,5.72950348 48.1287929,5.92811137 C48.1665034,5.98982831 48.2056105,6.05200928 48.2447177,6.11372622 C48.3573835,6.29284455 48.4681871,6.47289095 48.5827151,6.65108121 C48.6148388,6.70166125 48.6474281,6.7522413 48.6809485,6.80235731 C48.775923,6.9559536 48.8699664,7.11047796 48.9672687,7.26314617 C48.9984613,7.31187007 49.0287228,7.361058 49.0603809,7.41070998 C49.3099217,7.81163805 49.5617904,8.21117401 49.8150557,8.6097819 L49.8313503,8.63437587 C49.8765098,8.62277494 49.9226003,8.61117401 49.9691564,8.59910905 C50.3588312,8.49748492 50.7368669,8.35084919 51.1349217,8.27985151 C51.4533656,8.14296056 51.7974154,8.0784594 52.128895,7.98008353 C52.1791756,7.96801856 52.2299217,7.95502552 52.2811335,7.94110441 C52.649858,7.82880742 53.0241692,7.73646404 53.3961526,7.63437587 C53.4580723,7.6172065 53.5223197,7.6009652 53.5861016,7.58425986 C53.8351768,7.52068677 54.083321,7.4547935 54.3328618,7.39122042 C54.4455276,7.36059397 54.558659,7.32671926 54.6736526,7.30073318 C55.0428427,7.21535035 55.4111016,7.12486311 55.7798261,7.03762413 C55.8557126,7.01952668 55.931599,6.99864501 56.0088822,6.9810116 C56.3101003,6.91651044 56.6099217,6.84365661 56.9111399,6.77776334 C56.9604893,6.76616241 57.01077,6.75456148 57.0615161,6.74388863 C57.413946,6.66778654 57.7654447,6.58890023 58.1188057,6.51697448 L58.1988822,6.50073318 C58.9437802,6.34435267 59.6910059,6.20328538 60.4396284,6.06871462 C60.6495965,6.03019954 60.8614268,6.0009652 61.0709294,5.95688167 C61.2874154,5.92579118 61.5039013,5.89423666 61.7203873,5.86036195 C61.7860314,5.8496891 61.8544689,5.83901624 61.9224409,5.82880742 C62.2422814,5.78240371 62.5625876,5.73646404 62.8833592,5.69191647 C62.9126896,5.68820418 62.9708848,5.68077958 62.9997496,5.67706729 C63.3349536,5.63298376 63.6706233,5.59307657 64.0067585,5.55502552 C64.0859039,5.54574478 64.1673771,5.53460789 64.2483848,5.52718329 C64.5859166,5.49748492 64.922983,5.45943387 65.261446,5.43483991 C65.3438503,5.42787935 65.4281169,5.41906265 65.5119179,5.4134942 C65.8098771,5.39678886 66.1078363,5.37173086 66.406261,5.36059397 C66.4556105,5.35827378 66.5054256,5.3559536 66.5566373,5.35363341 C66.930483,5.33460789 67.3047942,5.32903944 67.679571,5.32207889 C67.7126258,5.32115081 67.77827,5.31883063 67.8108592,5.31790255 C68.1455978,5.310942 68.4808018,5.3160464 68.8155404,5.32625522 C68.8551131,5.32671926 68.8956169,5.32764733 68.9370518,5.32811137 C69.2177853,5.33460789 69.4985187,5.35316937 69.7797177,5.36801856 C69.8849345,5.37590719 69.9906169,5.38611601 70.097696,5.39446868 C70.4678172,5.42555916 70.8370072,5.47381903 71.2029383,5.54203248 C71.2522878,5.55131323 71.3011717,5.56152204 71.3523835,5.57265893 C71.7010888,5.64736891 72.0460697,5.74945708 72.3663758,5.90862181 C72.4571603,5.95456148 72.5442202,6.00885383 72.6242967,6.07242691 C72.8021411,6.21163805 72.952983,6.40328538 72.9879001,6.63112761 C73.0279383,6.85247332 72.957173,7.07381903 72.865923,7.27289095 C72.8379893,7.32950348 72.808659,7.3847239 72.7756041,7.43762413 C72.6796985,7.58797216 72.5740161,7.7322877 72.4594881,7.86825058 C72.4357445,7.89423666 72.3882572,7.94574478 72.3645136,7.97173086 C72.15827,8.18704408 71.941784,8.39168445 71.713659,8.58333179 C71.6517393,8.63576798 71.5893541,8.68820418 71.5279001,8.73924826 C71.4631871,8.79029234 71.3975429,8.83948028 71.3328299,8.88866821 C71.3044307,8.91001392 71.2471666,8.9522413 71.2187674,8.97358701 C70.8421284,9.25525754 70.4529192,9.52022274 70.0539332,9.76987471 C69.8849345,9.86639443 69.7238503,9.97451508 69.5590416,10.0775313 C69.3476768,10.198181 69.1367776,10.3202227 68.9240161,10.4371601 C68.899807,10.4501531 68.8513886,10.4766032 68.8271794,10.4895963 C68.4375047,10.7346079 68.1055595,11.0603619 67.7554575,11.3564176 C67.6954001,11.4088538 67.6367393,11.4622181 67.5785442,11.5160464 C67.1115863,11.9169745 66.6786143,12.3545615 66.2451768,12.7912204 C66.1990863,12.8366961 66.154858,12.8830998 66.1110952,12.9299675 C65.8648133,13.1884362 65.6250493,13.4529374 65.3890098,13.7211508 C65.2297878,13.8928445 65.0803427,14.072891 64.934622,14.2557216 C64.6524919,14.5972529 64.3764141,14.9438886 64.1170965,15.3030534 C64.0579702,15.3837958 63.9988439,15.4636102 63.9406488,15.5443527 C63.649673,15.9411044 63.3731297,16.3494571 63.1110187,16.7656984 C63.0802916,16.8144223 63.0495646,16.8631462 63.0211654,16.9123341 C63.0137164,16.923935 62.999284,16.9466729 62.9923006,16.9582738 C62.9480723,17.0250951 62.9047751,17.0923805 62.8633401,17.160594 C62.6719945,17.4719629 62.48996,17.7893643 62.3125812,18.1090858 C62.2827853,18.161522 62.2548516,18.2153503 62.2264524,18.2687146 C62.0858529,18.5216148 61.9536335,18.7791555 61.8293286,19.0404084 C61.7283018,19.2260232 61.6319307,19.4148863 61.5485952,19.6093179 C61.364233,20.0051415 61.1868541,20.4046775 61.0243733,20.8102459 C61.0104064,20.8436566 60.9834039,20.910942 60.9699026,20.9443527 C60.8376832,21.273355 60.7059294,21.6028213 60.5951258,21.9397123 C60.5485697,22.0779954 60.4992202,22.2153503 60.4498707,22.3531694 C60.3120646,22.7183666 60.223608,23.1007332 60.083474,23.4650023 C59.9829128,23.911406 59.8479001,24.348529 59.7454766,24.7944687 C59.7301131,24.8534014 59.7161462,24.9132622 59.7040416,24.973123 C59.6211717,25.3387842 59.5378363,25.7049095 59.47452,26.0747471 C59.4605531,26.1517773 59.444724,26.2283434 59.4335506,26.3063016 L59.4284294,26.3401763 C59.3883911,26.5420325 59.3483529,26.7438886 59.3190225,26.948065 C59.2338248,27.5206868 59.1486271,28.0937726 59.0974154,28.6705708 C59.0862419,28.7763712 59.0741373,28.8826357 59.0657572,28.9893643 C59.0313057,29.3847239 59.0047687,29.7805476 58.9870774,30.1768353 C58.9838184,30.2292715 58.9814906,30.2826357 58.9800939,30.336 C58.9605404,30.723471 58.9605404,31.111406 58.9633337,31.4993411 C58.9633337,31.5411044 58.9628682,31.623703 58.9628682,31.6654664 C58.9586781,32.0311276 58.9721794,32.3967889 58.9921985,32.7619861 C58.9949919,32.8028213 59.0001131,32.88542 59.0029064,32.9262552 C59.0187355,33.173123 59.0396858,33.4199907 59.0671539,33.6659304 C58.7864205,33.5726589 58.5056871,33.4793875 58.2254192,33.385652 C58.1774664,33.3698747 58.1304447,33.3550255 58.0848197,33.3406404 C57.7538057,33.2376241 57.4251195,33.1295035 57.094571,33.0274153 C56.91952,32.9749791 56.7454001,32.9197587 56.570349,32.8705708 C56.326395,32.7958608 56.0829064,32.7183666 55.8370901,32.6515452 L55.7891373,32.6371601 C55.4041182,32.5243991 55.0177024,32.4158144 54.6289587,32.3160464 L54.5442266,32.2919165 C54.205298,32.1977169 53.8631105,32.1174385 53.5227853,32.0311276 C53.471108,32.0181346 53.4198962,32.0060696 53.3696156,31.9944687 C53.0399983,31.9220789 52.7127087,31.8371601 52.3812291,31.773587 C52.2918414,31.7545615 52.2033848,31.7336798 52.1144626,31.7155824 C52.034386,31.698877 51.9557062,31.6840278 51.8765608,31.6701067 C51.5851195,31.6083898 51.292747,31.5540974 50.9985123,31.5095499 C50.661446,31.4418005 50.3215863,31.3889002 49.981261,31.3392483 C49.9384294,31.3332158 49.8965289,31.3276473 49.8550939,31.3225429 C49.4733337,31.2668585 49.0901768,31.2209188 48.7065544,31.1814756 C48.6781552,31.1782274 48.6218223,31.1712668 48.593423,31.1680186 C48.2498388,31.1350719 47.9057891,31.1039814 47.5617393,31.0807796 C47.5300812,31.0789234 47.4667649,31.0747471 47.4351067,31.072891 C47.0566054,31.0469049 46.677173,31.0306636 46.2977406,31.0199907 C46.2726003,31.0185986 46.2213886,31.0162784 46.1957827,31.0148863 C45.8531297,31.0144223 45.5109422,31.0018933 45.1687547,31.0014292 C45.1198707,31.0023573 45.0719179,31.0037494 45.0248962,31.0060696 C44.6906233,31.0130302 44.3563503,31.0134942 44.0225429,31.0269513 C43.9894881,31.0283434 43.9224473,31.0306636 43.8889268,31.0320557 C43.5141501,31.0478329 43.1398388,31.0682506 42.7655276,31.0919165 C42.6756743,31.0970209 42.5867521,31.1044455 42.4978299,31.111406 C42.1961462,31.1327517 41.8949281,31.1573457 41.5946411,31.18658 L41.5178235,31.1949327 C41.1211654,31.2288074 40.7249728,31.2710348 40.3292457,31.3183666 L40.2850174,31.3248631 C39.9158274,31.3656984 39.5466373,31.4083898 39.1793095,31.4636102 C38.7570455,31.5072297 38.3394371,31.5824037 37.9195008,31.6418005 C37.2104511,31.7429606 36.5046603,31.8617541 35.7984039,31.9763712 C35.6596666,32.0051415 35.518136,32.0176705 35.377071,32.0172065 C35.3700876,32.0269513 35.3565863,32.0459768 35.3496029,32.0557216 C35.0437291,32.1072297 34.7378554,32.160594 34.4329128,32.2148863 C34.3830978,32.2227749 34.3346794,32.2325197 34.286261,32.2413364 C33.9999409,32.2947007 33.7131552,32.3448167 33.426835,32.3967889 C33.2867011,32.4223109 33.1470327,32.4492251 33.0078299,32.4761392 C32.7210442,32.5295035 32.434724,32.5833318 32.1479383,32.635768 C32.1060378,32.6431926 32.0641373,32.6510812 32.0227024,32.6594339 C31.7363822,32.7118701 31.4500621,32.7647703 31.1637419,32.8167425 C30.8108465,32.8817077 30.45702,32.9406404 30.1045901,33.0065336 C29.9756297,33.0250951 29.8476003,33.0455128 29.7200365,33.0682506 C29.6911717,33.073355 29.6339077,33.0840278 29.6055085,33.0891323 C29.2298006,33.1513132 28.8545582,33.2139582 28.4793159,33.2756752 C28.4048261,33.2868121 28.3308018,33.2993411 28.2572432,33.311406 C27.9513695,33.3592019 27.6459613,33.4093179 27.3405531,33.4566497 C27.3084294,33.4617541 27.244182,33.4714988 27.2125238,33.4766032 C26.8694052,33.5276473 26.5272177,33.5814756 26.184099,33.6301995 C26.153372,33.6348399 26.0919179,33.6445847 26.0616564,33.6492251 C25.685483,33.7021253 25.3097751,33.7568817 24.933136,33.8074617 C24.9019434,33.8121021 24.8400238,33.8204548 24.8088312,33.8246311 C24.4638503,33.8719629 24.1184039,33.9174385 23.7729575,33.961058 C23.6370136,33.9763712 23.5015353,33.9944687 23.366057,34.0125661 C23.0746156,34.0524733 22.7799154,34.0724269 22.4908018,34.1271833 L22.4977853,34.1759072 C22.5038376,34.21071 22.5154766,34.2807796 22.5215289,34.3155824 L22.5243223,34.3295035 C22.4908018,34.3007332 22.4530914,34.2779954 22.4214332,34.2496891 C22.438659,34.2172065 22.472645,34.1522413 22.4894052,34.1192947 C22.0843669,34.1527053 21.6816564,34.2093179 21.2784804,34.2589698 C20.9926258,34.2803155 20.7063057,34.3030534 20.4218478,34.3406404 C20.4041564,34.3424965 20.3683082,34.3457448 20.3501513,34.3471369 C20.2728682,34.3536334 20.1960506,34.3601299 20.119233,34.3666265 C19.7421284,34.3995731 19.3654893,34.4315916 18.9883848,34.4626821 C18.9609166,34.4645383 18.9055149,34.4691787 18.8775812,34.4710348 C18.5917266,34.4933086 18.305872,34.5127981 18.020483,34.5341439 C17.8477598,34.5429606 17.6755021,34.5531694 17.5032445,34.5666265 C17.1996985,34.5833318 16.8956871,34.6018933 16.5921411,34.6158144 C16.560483,34.6172065 16.4971666,34.6204548 16.4655085,34.6218469 C16.1261143,34.6371601 15.7867202,34.6496891 15.4473261,34.660826 C15.416599,34.6617541 15.355145,34.6636102 15.3244179,34.6645383 C14.9812993,34.6766032 14.6377151,34.6756752 14.2945965,34.6826357 C14.2657317,34.6835638 14.2075365,34.68542 14.1786717,34.6868121 C13.9086462,34.6919165 13.6381552,34.6914524 13.3681297,34.6835638 C13.1320901,34.6682506 12.895585,34.6798515 12.6595455,34.6719629 C12.4044179,34.6636102 12.1488248,34.6580418 11.8936973,34.6450487 C11.8620391,34.6436566 11.7982572,34.6408724 11.766599,34.6390162 C11.38996,34.6209188 11.0137865,34.5977169 10.6376131,34.5675545 C10.6092138,34.5652343 10.5524154,34.560594 10.5235506,34.5582738 C10.1841564,34.5290394 9.84569343,34.4919165 9.50723042,34.4520093 C9.47929675,34.448761 9.42296384,34.4418005 9.39503017,34.4380882 C9.06029165,34.3902923 8.72508756,34.3462088 8.39221129,34.2891323 C8.12172022,34.2371601 7.85588476,34.1619861 7.58585925,34.1081578 C7.44805312,34.0714988 7.30978144,34.0371601 7.17290644,33.998645 C7.11378017,33.9814756 7.05558501,33.9624501 6.99738986,33.9438886 C6.76088476,33.8668585 6.52810415,33.7782274 6.30370364,33.6710348 C6.51693068,33.4422645 6.73853782,33.2223109 6.94943705,32.9921485 C7.0197368,32.9160464 7.0905021,32.8408724 7.16452634,32.7689466 C7.51462838,32.4320557 7.85355695,32.0835638 8.20040006,31.7434246 C8.27209649,31.6714988 8.34472404,31.6009652 8.41921384,31.5318237 C8.7451067,31.2255592 9.06867175,30.9160464 9.39642685,30.6116381 C9.55983884,30.4705708 9.71440517,30.3202227 9.87316154,30.1745151 C10.1110633,29.9633782 10.3466373,29.748993 10.5826768,29.5350719 L10.6413376,29.4844919 C10.8061462,29.3411044 10.9742138,29.2018933 11.1348325,29.0538654 C11.2228235,28.9777633 11.3122113,28.9030534 11.3997368,28.8269513 C11.5231105,28.7197587 11.6478809,28.6144223 11.7726513,28.5090858 C11.8201386,28.4682506 11.8680914,28.4283434 11.9160442,28.3884362 C12.1776896,28.1689466 12.4388695,27.948529 12.7033082,27.7332158 C12.8215608,27.6385522 12.9356233,27.5383202 13.054807,27.4450487 C13.4226003,27.1448167 13.8020327,26.8585058 14.1679638,26.5564176 C14.2727151,26.4970209 14.2042776,26.3814756 14.1856552,26.2942367 C14.2154511,26.1800835 14.2806297,26.0793875 14.3267202,25.9717309 C14.4817521,25.6380882 14.6363184,25.3039814 14.8085761,24.9786914 C14.8253363,24.9452807 14.8588567,24.8779954 14.8756169,24.8445847 C15.0320455,24.5438886 15.1968541,24.2478329 15.359335,23.9503852 C15.4608274,23.7921485 15.5539396,23.6297355 15.6465863,23.4668585 C15.8798325,23.0779954 16.1228554,22.6956288 16.3728618,22.3179026 C16.4487483,22.2005012 16.5283592,22.085884 16.6079702,21.9717309 C16.8430786,21.6269513 17.0898261,21.2905244 17.3370391,20.9545615 C17.3700939,20.9090858 17.4040799,20.8645383 17.4380659,20.8204548 C17.5362993,20.6942367 17.6322049,20.5661624 17.7299728,20.4399443 C17.7681488,20.3902923 17.8077215,20.3420325 17.8472942,20.2937726 C18.0307253,20.0640742 18.2136909,19.8348399 18.4022432,19.6093179 C18.4380914,19.5647703 18.4744052,19.5202227 18.5111845,19.4766032 C18.6275748,19.3392483 18.7462929,19.2046775 18.8640799,19.0687146 C18.918085,19.0060696 18.9720901,18.9434246 19.0265608,18.8812436 C19.2048707,18.6784594 19.3869052,18.4784594 19.5675429,18.2770673 C19.6029256,18.2371601 19.6387738,18.198181 19.6750876,18.1592019 C19.8329128,17.9958608 19.986548,17.8292715 20.1420455,17.6645383 C20.1751003,17.6292715 20.2090863,17.5949327 20.2430723,17.560594 C20.4292967,17.3680186 20.6225047,17.1828677 20.8091947,16.9907564 C20.8767011,16.9225429 20.9456041,16.8552575 21.0135761,16.7875081 C21.0973771,16.7044455 21.1811781,16.6209188 21.2668414,16.5397123 C21.3120008,16.4965568 21.3580914,16.4538654 21.4032508,16.41071 C21.6849154,16.1378561 21.9740289,15.8724269 22.2645391,15.6093179 C22.3180786,15.5596659 22.3692904,15.5076937 22.4209677,15.4557216 L22.4251577,15.4515452 L22.4279511,15.448761 C22.4940608,15.3926125 22.5615672,15.3383202 22.6267457,15.2812436 C22.9684677,14.9814756 23.312983,14.6835638 23.6598261,14.3893643 C23.7678363,14.2974849 23.8791054,14.2088538 23.9875812,14.1174385 C24.2548133,13.8970209 24.5243733,13.6803155 24.7953299,13.4650023 C24.8456105,13.4246311 24.8958911,13.3847239 24.9471029,13.3452807 C25.1165672,13.2125661 25.2874281,13.0807796 25.4578235,12.948529 C25.5216054,12.8993411 25.5835251,12.848297 25.6477725,12.799109 C25.7846475,12.6965568 25.9229192,12.5963248 26.0593286,12.4933086 C26.1016947,12.46129 26.1445263,12.4301995 26.187358,12.398645 C26.5253554,12.1462088 26.8703363,11.9030534 27.210196,11.6529374 C27.313085,11.5786914 27.419233,11.5076937 27.5235187,11.4348399 C27.81077,11.2390162 28.0952279,11.0394803 28.3829447,10.8445847 L28.4574345,10.7949327 C28.7907763,10.5726589 29.1250493,10.3517773 29.4611845,10.1341439 C29.5547623,10.0724269 29.6464779,10.0083898 29.7423835,9.94992111 C30.084571,9.74017633 30.4225684,9.52393503 30.7642904,9.31326218 C30.7940863,9.29516473 30.8536781,9.25943387 30.883474,9.24133643 C31.1469817,9.08170766 31.4109549,8.923471 31.6744626,8.7647703 C31.765247,8.71047796 31.8551003,8.6547935 31.9468159,8.60235731 C31.9645072,8.59261253 31.9998899,8.57265893 32.0180467,8.56291415 C32.0622751,8.53646404 32.1092967,8.51047796 32.1544562,8.48402784 C32.491057,8.28681206 32.8318478,8.09562877 33.1707763,7.90212529 C33.1954511,7.88866821 33.244335,7.86175406 33.2685442,7.84829698 C33.5036526,7.71929466 33.7378299,7.58890023 33.974335,7.46175406 C34.0795518,7.40560557 34.1815098,7.34435267 34.2839332,7.28356381 C34.28952,7.28170766 34.3002279,7.27799536 34.3058146,7.27660325 C34.3332827,7.26268213 34.3877534,7.23483991 34.4152215,7.22138283 C34.7965161,7.02277494 35.175483,6.82045476 35.5586399,6.62509513 C35.6024026,6.60282135 35.6470965,6.58054756 35.6922559,6.55873782 C36.0093031,6.39261253 36.3324026,6.23808817 36.6517776,6.07613921 C36.730923,6.03437587 36.8119307,5.99400464 36.894335,5.95688167 C37.2500238,5.7935406 37.6019881,5.62277494 37.9572113,5.4585058 C37.9981807,5.43901624 38.0396156,5.41999072 38.0815161,5.40142923 C38.4129957,5.25200928 38.7435442,5.10166125 39.0778172,4.95873782 C39.1220455,4.93924826 39.1662738,4.91929466 39.2118988,4.90026914 C39.3478427,4.84133643 39.4842521,4.78333179 39.6215927,4.72671926 L39.6215927,4.72671926 Z M41.4926832,31.6394803 C41.8767712,31.6209188 42.2585314,31.5721949 42.643085,31.5587378 C43.8544753,31.5211508 45.0654001,31.5703387 46.2767904,31.58658 C46.6916054,31.5944687 47.1008337,31.6770673 47.5156488,31.6882042 C47.8745965,31.7438886 48.2372687,31.7675545 48.5971475,31.8130302 C48.6385825,31.8172065 48.6800174,31.8218469 48.7223835,31.8274153 C49.0901768,31.8724269 49.4598325,31.9016613 49.8262291,31.9587378 C49.8746475,31.9670905 49.9230659,31.9759072 49.9728809,31.986116 C50.3015672,32.0501531 50.6311845,32.111406 50.9608018,32.1745151 C51.0087547,32.1833318 51.0562419,32.1916845 51.106057,32.2018933 C51.4421922,32.2691787 51.7778618,32.3373921 52.113997,32.4042135 C52.1642776,32.4139582 52.2136271,32.423703 52.26577,32.4348399 C52.6019052,32.4933086 52.9268669,32.5977169 53.2560187,32.6844919 C53.3435442,32.7090858 53.4315353,32.735536 53.5199919,32.760594 C53.6410378,32.7944687 53.7630149,32.8260232 53.885923,32.8561856 C54.1298771,32.9295035 54.3719689,33.0093179 54.6201131,33.0710348 C54.9781297,33.1717309 55.3300939,33.2914524 55.6774026,33.4246311 C55.7518924,33.4515452 55.8263822,33.4793875 55.9018031,33.5076937 C56.2421284,33.6329838 56.5829192,33.7592019 56.9223133,33.8891323 C56.9660761,33.9053735 57.0103044,33.923007 57.0554638,33.9411044 C57.2691564,34.0297355 57.4847113,34.1155824 57.6974728,34.2083898 C57.8632126,34.2844919 58.0275557,34.3643063 58.1946922,34.4390162 C58.5503809,34.6074617 58.9056041,34.7777633 59.2589651,34.9513132 C59.3222814,34.9828677 59.3837355,35.0181346 59.4470518,35.0524733 C59.7273197,35.2014292 60.0010697,35.3629142 60.280872,35.5146543 C60.3772432,35.5670905 60.4745455,35.6195267 60.5699855,35.6761392 C60.9498835,35.9021253 61.3311781,36.1267193 61.6994371,36.3721949 C61.7511143,36.4065336 61.8032572,36.4418005 61.8554001,36.4770673 C62.0532636,36.611174 62.2492649,36.7476009 62.4448006,36.885884 C62.5216182,36.9429606 62.5979702,37.0018933 62.6761845,37.0598979 C62.7385697,37.1063016 62.801886,37.1531694 62.8661335,37.2005012 C62.9043095,37.2292715 62.9415544,37.2580418 62.9811271,37.2882042 C63.3424026,37.560594 63.6901768,37.8492251 64.03702,38.1387842 C64.056108,38.1536334 64.0947496,38.1833318 64.1138376,38.198181 L64.1268733,38.2204548 L64.1492202,38.2366961 C64.1948452,38.2770673 64.2367457,38.3243991 64.2819052,38.3684826 C64.6096603,38.6826357 64.9439332,38.9907564 65.2414268,39.3341439 C65.2856552,39.3833318 65.3294179,39.4320557 65.3750429,39.4826357 L65.3880786,39.497949 L65.4206679,39.5907564 C65.3852853,39.5708028 65.3149855,39.5308956 65.2800684,39.510478 C64.9146029,39.2928445 64.5361016,39.0970209 64.1524791,38.9137262 C64.125011,38.9007332 64.0691437,38.8747471 64.04121,38.8617541 C63.7041437,38.6993411 63.364284,38.5429606 63.0211654,38.3935406 C62.9699536,38.373587 62.919673,38.3513132 62.8703235,38.3332158 C62.8647368,38.3304316 62.8530978,38.3253271 62.847511,38.3225429 C62.7301896,38.2691787 62.615196,38.2121021 62.4960123,38.1656984 C62.2799919,38.0779954 62.0639715,37.9916845 61.8474855,37.9072297 C61.8162929,37.8956288 61.7534422,37.8714988 61.7222496,37.8594339 C61.3474728,37.7165104 60.9703682,37.5796195 60.5918669,37.448761 C60.5448452,37.4325197 60.4982891,37.4167425 60.4526641,37.4014292 C60.11327,37.2877401 59.774807,37.1726589 59.4321539,37.0710348 L59.3455595,37.0459768 C59.2543095,37.0195267 59.1630595,36.9940046 59.0732062,36.9656984 C58.9563503,36.9257912 58.8394945,36.886348 58.7212419,36.8538654 C58.5652789,36.8097819 58.4097814,36.7633782 58.2519562,36.7295035 C58.1993478,36.7165104 58.148136,36.7035174 58.0973899,36.6905244 C57.7477534,36.6046775 57.3981169,36.5188306 57.0494115,36.4306636 C57.0014587,36.4181346 56.9544371,36.4065336 56.9078809,36.3953968 C56.1727598,36.2148863 55.4232062,36.1025893 54.6829638,35.9476009 C54.6354766,35.9378561 54.5889205,35.9290394 54.5432955,35.9216148 C54.2001768,35.8585058 53.8533337,35.8227749 53.5074217,35.7791555 C53.4757636,35.7749791 53.4129128,35.7670905 53.3812547,35.7633782 C53.0167202,35.7141903 52.6507891,35.672891 52.2862547,35.6246311 C51.7601705,35.5350719 51.2247751,35.5397123 50.6949664,35.4891323 C50.4179575,35.4594339 50.1395518,35.4515452 49.8620774,35.4343759 C49.4789205,35.3958608 49.0939013,35.3907564 48.7088822,35.398181 C48.6618605,35.3977169 48.6148388,35.3977169 48.5692138,35.3977169 C48.228423,35.3926125 47.8880978,35.4042135 47.5477725,35.3898283 C47.5203044,35.3889002 47.4653682,35.3875081 47.4379001,35.38658 C47.0994371,35.3870441 46.760974,35.3768353 46.4229766,35.3921485 C46.327071,35.398181 46.2306998,35.3851879 46.1366564,35.3884362 C45.5905531,35.4534014 45.0374664,35.472891 44.4881041,35.5081578 C43.8619243,35.5499211 43.2338822,35.5796195 42.6118924,35.6696427 C42.2785506,35.7146543 41.9438121,35.7531694 41.6104702,35.798181 C41.5839332,35.8018933 41.5303937,35.8083898 41.5038567,35.8121021 C41.1276832,35.8598979 40.7524409,35.910478 40.3758018,35.9517773 C40.3450748,35.9554896 40.2826896,35.9629142 40.2519626,35.9666265 C39.9023261,36.0037494 39.5610697,36.0895963 39.2160888,36.1517773 L39.1276322,36.1689466 C38.772409,36.2385522 38.4167202,36.3058376 38.0619626,36.3763712 C38.0070263,36.38658 37.9530212,36.3967889 37.8994817,36.4074617 C37.5372751,36.4756752 37.1764651,36.548529 36.814724,36.6181346 L36.7518733,36.6301995 C36.426446,36.6886682 36.1038121,36.7619861 35.7862993,36.8538654 C35.5716756,36.9132622 35.354724,36.9624501 35.1405659,37.0213828 C34.8989396,37.0784594 34.6601067,37.1438886 34.4198771,37.2056056 C34.3891501,37.2134942 34.327696,37.2292715 34.2965034,37.2371601 C33.9063631,37.3318237 33.5222751,37.4557216 33.1256169,37.5225429 C32.7983274,37.6353039 32.4561399,37.6942367 32.1232636,37.7870441 C32.0287547,37.8097819 31.9351768,37.835768 31.8411335,37.8598979 C31.5315353,37.9369281 31.2224026,38.0167425 30.9151322,38.1016613 C30.5813248,38.1745151 30.2545008,38.273355 29.9239524,38.3564176 C29.856446,38.3698747 29.7903363,38.385652 29.7242266,38.4018933 C29.6758082,38.4130302 29.6278554,38.4246311 29.5808337,38.4376241 C29.2107126,38.5336798 28.8373325,38.6167425 28.4658146,38.7058376 C28.4090161,38.7188306 28.3522177,38.7318237 28.2954192,38.7443527 C27.9765098,38.8093179 27.658997,38.8807796 27.3386909,38.9411044 C27.3074983,38.9471369 27.2451131,38.9587378 27.2139205,38.9647703 C26.8708018,39.0315916 26.5267521,39.0909884 26.1827024,39.1527053 C26.134284,39.160594 26.0858656,39.1689466 26.0383784,39.1782274 C25.3339842,39.310478 24.6258656,39.4223109 23.9196092,39.5452807 C23.6221156,39.6037494 23.317173,39.6093179 23.0182827,39.6603619 C22.8604575,39.673355 22.7030978,39.6914524 22.5457381,39.7053735 C22.5136143,39.7081578 22.4498325,39.7141903 22.4181743,39.7169745 C22.0745901,39.7494571 21.7310059,39.7833318 21.3869562,39.8130302 C21.3227087,39.8176705 21.2589268,39.8209188 21.1956105,39.8301995 C20.8780978,39.8594339 20.560585,39.8868121 20.2430723,39.9183666 C20.1038695,39.9369281 19.9618733,39.9188306 19.8236016,39.9429606 C19.5410059,39.973123 19.2560825,39.9661624 18.9725557,39.9791555 L18.8808401,39.9800835 C18.5358592,39.9786914 18.1904128,39.9745151 17.845432,39.9902923 C17.8142393,39.9907564 17.7518541,39.9912204 17.7206615,39.9912204 C17.3440225,39.986116 16.967849,40.0125661 16.59121,39.9921485 C16.5567585,39.9916845 16.4873899,39.9907564 16.4529383,39.9907564 C16.1512547,39.985652 15.8500365,39.9629142 15.5488184,39.9503852 C15.3928554,39.9378561 15.237358,39.9225429 15.081395,39.9141903 C14.8220774,39.8933086 14.5627598,39.8724269 14.3034422,39.8501531 C14.2722496,39.8473689 14.2093988,39.8422645 14.1782062,39.8394803 C13.8295008,39.8088538 13.4793988,39.7851879 13.1316246,39.7434246 C13.0617904,39.7350719 12.9914906,39.7243991 12.922122,39.7155824 C12.8006105,39.6974849 12.6795646,39.6770673 12.5585187,39.6598979 C12.2843031,39.6028213 12.0082253,39.5554896 11.731682,39.5123341 C11.3638886,39.4431926 10.9951641,39.3810116 10.6283018,39.310942 C10.6040927,39.3063016 10.5561399,39.2960928 10.5319307,39.2909884 C10.1874154,39.2167425 9.8508146,39.111406 9.51002379,39.0218469 C9.47836562,39.0134942 9.41551486,38.9963248 9.38432226,38.9875081 C9.043997,38.8923805 8.70367175,38.7972529 8.36613986,38.6928445 C8.32051486,38.6775313 8.27535542,38.6626821 8.23066154,38.648297 C7.94247915,38.5564176 7.65941792,38.4506172 7.37496001,38.348529 C7.21946256,38.2914524 7.06722404,38.2260232 6.9140544,38.1629142 C6.61190517,38.0348399 6.31301486,37.8998051 6.01412455,37.7633782 C5.95639496,37.736464 5.89959649,37.7076937 5.84279802,37.6803155 C5.45312328,37.4882042 5.06810415,37.286348 4.6868095,37.0779954 L4.58624828,37.0223109 C4.56250466,37.0079258 4.53876103,36.9944687 4.51501741,36.9810116 C4.4442521,36.9378561 4.37441792,36.8951647 4.30458374,36.8515452 C4.05364624,36.6923805 3.8055021,36.5290394 3.56015134,36.3619861 C3.51825083,36.3332158 3.47635032,36.3049095 3.43444981,36.2770673 C3.06293195,36.0292715 2.73424573,35.7262552 2.3887993,35.4455128 C2.35853782,35.4181346 2.3287419,35.3912204 2.2998771,35.3643063 C1.93161818,35.0315916 1.58291282,34.6779954 1.26027889,34.3011972 C1.19742812,34.2269513 1.13550848,34.1513132 1.07545108,34.0752111 C0.802632207,33.7262552 0.557747003,33.3559536 0.340795472,32.9703387 C0.328225319,32.9457448 0.303550574,32.8960928 0.290980421,32.8714988 C0.263046747,32.8121021 0.238372003,32.7503852 0.212766135,32.6905244 C0.264908992,32.736464 0.316586288,32.7837958 0.367798023,32.8311276 C0.43902889,32.8960928 0.51119088,32.961058 0.584749554,33.0241671 C0.730470217,33.1471369 0.875725319,33.2705708 1.02749828,33.386116 C1.06660542,33.4153503 1.10664369,33.4445847 1.14668195,33.4742831 C1.50097404,33.7299675 1.8724919,33.961522 2.25099318,34.1800835 C2.36319343,34.2418005 2.47213476,34.3100139 2.58433501,34.373587 C2.85296384,34.5248631 3.13369726,34.6524733 3.41396511,34.7810116 C3.45865899,34.8005012 3.50335287,34.8213828 3.54758119,34.8422645 C3.87533629,35.0130302 4.23102506,35.1160464 4.57228144,35.2529374 C4.59974955,35.2636102 4.65375466,35.2840278 4.68122277,35.2947007 C4.92191792,35.3889002 5.16447532,35.4793875 5.41494726,35.5452807 C5.58627379,35.6032854 5.76225593,35.6464408 5.93730695,35.6914524 C6.27809777,35.8009652 6.62400976,35.8965568 6.97364624,35.9749791 C7.00297659,35.9810116 7.06256843,35.9930766 7.09236435,35.999109 C7.47086562,36.0631462 7.84843578,36.1308956 8.22507481,36.2042135 C8.29304675,36.2162784 8.36055312,36.2278794 8.42852506,36.2413364 C8.72555312,36.2960928 9.02490899,36.3378561 9.32519598,36.3694107 C9.38571894,36.3763712 9.4462419,36.3791555 9.50769598,36.3842599 C9.82846767,36.4083898 10.1478427,36.4510812 10.4681488,36.4821717 C10.5794179,36.4942367 10.6906871,36.5072297 10.8024217,36.5165104 C11.1315735,36.5438886 11.4625876,36.5434246 11.793136,36.548529 C11.8201386,36.5494571 11.8750748,36.5513132 11.9020774,36.5522413 C12.2424026,36.5629142 12.5822623,36.574051 12.9225876,36.5847239 C12.9542457,36.585652 13.0184932,36.5879722 13.0506169,36.5893643 C13.5748388,36.6093179 14.0971985,36.5536334 14.6204893,36.5383202 C15.2354957,36.5137262 15.8514332,36.4951647 16.4650429,36.4418005 C16.4967011,36.4390162 16.5600174,36.4329838 16.5916756,36.4301995 C16.967849,36.3898283 17.343557,36.3387842 17.7192649,36.2937726 C17.7886335,36.2849559 17.8584677,36.2779954 17.9283018,36.2714988 C18.2039141,36.2441206 18.4804575,36.2227749 18.7565353,36.1940046 C18.8673388,36.1828677 18.9781424,36.1689466 19.088946,36.1559536 C19.4371858,36.123007 19.7817011,36.0575777 20.1252853,35.9921485 C20.164858,35.9842599 20.2044307,35.9777633 20.2444689,35.9717309 C20.8250238,35.8766032 21.4037164,35.7698747 21.9847368,35.6775313 C22.1327853,35.6534014 22.2803682,35.6269513 22.4279511,35.6009652 L22.4228299,35.5373921 C22.4218988,35.5295035 22.4209677,35.5132622 22.4205021,35.5053735 C22.4326067,35.5243991 22.4572814,35.5624501 22.469386,35.5814756 C22.6048643,35.5796195 22.7375493,35.5471369 22.8711654,35.5248631 C23.142122,35.4784594 23.408423,35.4079258 23.6765863,35.3476009 C23.7073133,35.3401763 23.7687674,35.3262552 23.7994945,35.3188306 C24.1337674,35.2422645 24.4680404,35.1643063 24.80371,35.0923805 C24.8479383,35.0821717 24.8926322,35.0724269 24.9377916,35.0631462 C25.3111717,34.9833318 25.6836207,34.897949 26.057932,34.823239 C26.1547687,34.8028213 26.252071,34.7819397 26.3493733,34.760594 C26.640349,34.6974849 26.9271348,34.6190626 27.214386,34.5411044 C27.2553554,34.5295035 27.2967904,34.5179026 27.3382253,34.5072297 C27.4983784,34.4636102 27.6576003,34.4167425 27.8172878,34.3717309 C28.0756743,34.3044455 28.3303363,34.2223109 28.5896539,34.1582738 C28.9374281,34.073355 29.2819434,33.9759072 29.628321,33.8868121 L29.7139842,33.8622181 C30.0631552,33.7717309 30.411395,33.6789234 30.7601003,33.58658 C30.7889651,33.5786914 30.8466947,33.5629142 30.8760251,33.5550255 C31.2619753,33.4552575 31.64746,33.3517773 32.0329447,33.2501531 C32.0552916,33.2445847 32.09952,33.2329838 32.1218669,33.2269513 C32.4538121,33.1513132 32.7829638,33.0645383 33.1135123,32.9814756 C33.3155659,32.9341439 33.5166883,32.8840278 33.7187419,32.8353039 C33.9086909,32.7935406 34.0967776,32.7434246 34.286261,32.698413 C34.3891501,32.672891 34.4915735,32.6459768 34.5949281,32.6213828 C34.9115098,32.548993 35.2234358,32.4547935 35.5456041,32.4074617 C35.6042649,32.3963248 35.6643223,32.3870441 35.7239141,32.3763712 C36.4655531,32.2306636 37.2155723,32.1332158 37.9618669,32.0134942 C37.9972496,32.0074617 38.0330978,32.0018933 38.0694115,31.9967889 C38.4083401,31.9471369 38.745872,31.8849559 39.0852661,31.8334478 C39.1220455,31.8274153 39.1597559,31.8223109 39.197932,31.8176705 C39.5540863,31.7754432 39.9107062,31.7383202 40.2696539,31.7304316 C40.6756233,31.6793875 41.0853172,31.6761392 41.4926832,31.6394803 L41.4926832,31.6394803 Z" fill="#FFFFFF"></path>
</svg>